<svg xmlns="http://www.w3.org/2000/svg" width="1600" height="980" viewBox="0 0 1600 980" role="img" aria-labelledby="title desc">
  <title id="title">OpenPrd requirement routing</title>
  <desc id="desc">A diagram showing how OpenPrd routes incoming requests into quick fixes, existing-flow improvements, or new feature and workflow work.</desc>
  <defs>
    <linearGradient id="bg" x1="0" y1="0" x2="1" y2="1">
      <stop offset="0" stop-color="#fff8f1"/>
      <stop offset="0.45" stop-color="#f8fbff"/>
      <stop offset="1" stop-color="#f6f2ff"/>
    </linearGradient>
    <filter id="shadow" x="-20%" y="-20%" width="140%" height="140%">
      <feDropShadow dx="0" dy="16" stdDeviation="18" flood-color="#0f172a" flood-opacity="0.12"/>
    </filter>
    <marker id="arrow" viewBox="0 0 12 12" refX="11" refY="6" markerWidth="10" markerHeight="10" orient="auto">
      <path d="M2 2 L10 6 L2 10 Z" fill="#475569"/>
    </marker>
    <style>
      .eyebrow { font: 700 20px Inter, ui-sans-serif, system-ui, -apple-system, BlinkMacSystemFont, "Segoe UI", sans-serif; letter-spacing: 2px; fill: #2563eb; }
      .title { font: 800 56px Inter, ui-sans-serif, system-ui, -apple-system, BlinkMacSystemFont, "Segoe UI", sans-serif; fill: #0f172a; }
      .subtitle { font: 500 26px Inter, ui-sans-serif, system-ui, -apple-system, BlinkMacSystemFont, "Segoe UI", sans-serif; fill: #334155; }
      .card-title { font: 800 28px Inter, ui-sans-serif, system-ui, -apple-system, BlinkMacSystemFont, "Segoe UI", sans-serif; fill: #111827; }
      .card-body { font: 500 20px Inter, ui-sans-serif, system-ui, -apple-system, BlinkMacSystemFont, "Segoe UI", sans-serif; fill: #475569; }
      .pill { font: 700 18px Inter, ui-sans-serif, system-ui, -apple-system, BlinkMacSystemFont, "Segoe UI", sans-serif; fill: #ffffff; }
      .footer-title { font: 700 22px Inter, ui-sans-serif, system-ui, -apple-system, BlinkMacSystemFont, "Segoe UI", sans-serif; fill: #0f172a; }
      .footer-body { font: 500 18px Inter, ui-sans-serif, system-ui, -apple-system, BlinkMacSystemFont, "Segoe UI", sans-serif; fill: #475569; }
      .line { fill: none; stroke: #64748b; stroke-width: 4; marker-end: url(#arrow); }
      .dash { fill: none; stroke: #94a3b8; stroke-width: 3; stroke-dasharray: 10 10; }
    </style>
  </defs>

  <rect width="1600" height="980" fill="url(#bg)"/>
  <path d="M0 126 H1600 M0 292 H1600 M0 458 H1600 M0 624 H1600 M0 790 H1600 M190 0 V980 M390 0 V980 M590 0 V980 M790 0 V980 M990 0 V980 M1190 0 V980 M1390 0 V980" stroke="#dbeafe" stroke-width="1" opacity="0.65"/>

  <g transform="translate(92 78)">
    <text class="eyebrow" x="0" y="0">OPENPRD REQUIREMENT INTAKE</text>
    <text class="title" x="0" y="78">How OpenPrd routes a request</text>
    <text class="subtitle" x="2" y="126">First clarify the goal, situation, and risks, then decide whether to act directly, share a mini-plan, or move into a full change flow.</text>
  </g>

  <g transform="translate(96 220)" filter="url(#shadow)">
    <rect width="420" height="280" rx="22" fill="#ffffff" stroke="#fdba74" stroke-width="2"/>
    <rect x="30" y="28" width="104" height="38" rx="19" fill="#f97316"/>
    <text class="pill" x="62" y="53">01</text>
    <text class="card-title" x="30" y="108">Quick fix</text>
    <text class="card-body" x="30" y="152">The issue is already clear</text>
    <text class="card-body" x="30" y="184">The blast radius is small</text>
    <text class="card-body" x="30" y="216">Success is easy to verify</text>
    <text class="card-body" x="30" y="248">Usually handled directly</text>
    <text class="card-body" x="30" y="280">Then reported back clearly</text>
  </g>

  <g transform="translate(590 220)" filter="url(#shadow)">
    <rect width="420" height="280" rx="22" fill="#ffffff" stroke="#c4b5fd" stroke-width="2"/>
    <rect x="30" y="28" width="104" height="38" rx="19" fill="#7c3aed"/>
    <text class="pill" x="62" y="53">02</text>
    <text class="card-title" x="30" y="108">Existing-flow improvement</text>
    <text class="card-body" x="30" y="152">The goal is clear</text>
    <text class="card-body" x="30" y="184">But several screens, states,</text>
    <text class="card-body" x="30" y="216">or user actions are involved</text>
    <text class="card-body" x="30" y="248">Start with a plain-language</text>
    <text class="card-body" x="30" y="280">mini-plan, then continue</text>
  </g>

  <g transform="translate(1084 220)" filter="url(#shadow)">
    <rect width="420" height="280" rx="22" fill="#ffffff" stroke="#86efac" stroke-width="2"/>
    <rect x="30" y="28" width="104" height="38" rx="19" fill="#16a34a"/>
    <text class="pill" x="62" y="53">03</text>
    <text class="card-title" x="30" y="108">New feature / workflow</text>
    <text class="card-body" x="30" y="152">The surface area is bigger</text>
    <text class="card-body" x="30" y="184">More roles are involved</text>
    <text class="card-body" x="30" y="216">Or business risk is unclear</text>
    <text class="card-body" x="30" y="248">Clarify the first version</text>
    <text class="card-body" x="30" y="280">before the full plan path</text>
  </g>

  <path class="line" d="M516 360 H578"/>
  <path class="line" d="M1010 360 H1072"/>

  <g transform="translate(220 566)" filter="url(#shadow)">
    <rect width="1160" height="156" rx="24" fill="#ffffff" stroke="#dbeafe" stroke-width="2"/>
    <text class="footer-title" x="40" y="54">Start with the business problem</text>
    <text class="footer-body" x="40" y="90">Who is stuck, in what situation, and what should be solved first.</text>
    <path class="dash" d="M438 78 H538"/>
    <text class="footer-title" x="576" y="54">OpenPrd summarizes first</text>
    <text class="footer-body" x="576" y="90">It brings the goal, scope, non-goals, and risks into one view.</text>
    <path class="dash" d="M952 78 H1052"/>
    <text class="footer-title" x="1088" y="54">Then it picks the right rhythm</text>
    <text class="footer-body" x="1088" y="90">This avoids both heavy process too early and premature implementation.</text>
  </g>

  <g transform="translate(120 792)" filter="url(#shadow)">
    <rect width="1360" height="110" rx="24" fill="#ffffff" stroke="#dbeafe" stroke-width="2"/>
    <circle cx="72" cy="55" r="28" fill="#fb923c"/>
    <circle cx="460" cy="55" r="28" fill="#38bdf8"/>
    <circle cx="864" cy="55" r="28" fill="#34d399"/>
    <text class="footer-title" x="118" y="44">Consumer requests</text>
    <text class="footer-body" x="118" y="74">Focus on the user moment, first felt value, and return motivation.</text>
    <text class="footer-title" x="506" y="44">B2B requests</text>
    <text class="footer-body" x="506" y="74">Focus on who approves, who uses, and who must drive rollout.</text>
    <text class="footer-title" x="910" y="44">Agent requests</text>
    <text class="footer-body" x="910" y="74">Focus on what can be automated and where human backup is required.</text>
  </g>
</svg>
